<svg width="226" height="74" viewBox="0 0 226 74" fill="none" xmlns="http://www.w3.org/2000/svg">
<path d="M36.94 34.4434C38.2643 34.6309 39.5292 34.7296 40.7151 34.7296C45.4289 34.7296 50.4689 32.9535 50.4689 27.9707C50.4689 24.1818 47.5438 21.2119 43.7984 21.2119C39.7565 21.2119 36.9302 24.7245 36.9302 29.7566V34.4434H36.94ZM24.9726 67.4089H27.6507C29.133 67.4089 30.3387 66.2051 30.3387 64.7251V39.7321C27.71 38.9921 24.9923 38.0054 22.2945 36.7819V64.7251C22.2846 66.2051 23.4902 67.4089 24.9726 67.4089ZM29.9928 74H22.6206C18.7863 74 15.6733 70.8919 15.6733 67.0635V33.3186C9.56607 29.6185 3.93316 24.764 0 18.9819L5.46491 15.272C8.11337 19.1595 11.7402 22.6228 15.7919 25.504C17.1161 10.3681 30.5857 -1.35382 46.3875 0.126223C59.9065 1.38919 70.6881 12.4106 71.6566 25.9381C72.8326 42.2778 59.8373 55.9632 43.6995 55.9632V49.3721C56.3192 49.3721 66.419 38.4198 64.986 25.5435C63.8891 15.7259 55.9832 7.82244 46.1504 6.7272C33.2441 5.28663 22.2846 15.3805 22.2846 27.9806V29.4804C24.9528 30.8716 27.6803 32.0063 30.3288 32.8746V29.7764C30.3288 21.0047 35.9913 14.6306 43.7984 14.6306C51.1212 14.6306 57.0703 20.6199 57.0703 27.9806C57.0703 35.9629 50.4986 41.3306 40.7052 41.3306C39.5094 41.3306 38.2445 41.2516 36.9302 41.0938V67.0734C36.94 70.8919 33.8271 74 29.9928 74Z" fill="#FF5C0B"/>
<path d="M214.359 33.4011L209.883 20.4655H203.123L211.365 41.0677C210.683 42.6661 209.369 43.1003 208.124 43.1003C206.72 43.1003 205.525 42.7451 204.526 42.1827L203.044 47.1753C204.645 47.9351 206.483 48.3692 208.44 48.3692C213.114 48.3692 215.634 46.1294 217.561 41.1072L225.398 20.4655H218.876L214.359 33.4011ZM191.126 35.0785C188.567 35.0785 187.124 33.6379 187.124 30.3325C187.124 26.8593 188.606 25.3793 191.166 25.3793C193.607 25.3793 195.128 27.0566 195.128 30.1253C195.118 33.3221 193.606 35.0785 191.126 35.0785ZM190.681 48.685C197.836 48.685 201.522 44.531 201.522 37.4268V20.4557H195.721L195.563 23.4947C194.486 21.2943 192.48 20.061 189.604 20.061C184.406 20.061 180.69 23.8104 180.69 30.2437C180.69 36.667 184.367 40.4263 189.209 40.4263C191.887 40.4263 193.883 39.2324 195.128 37.3479V39.262C195.128 42.3405 193.646 43.8896 191.007 43.8896C188.448 43.8896 187.41 43.0115 186.926 41.5314L180.008 42.6859C180.888 46.09 184.287 48.685 190.681 48.685ZM157.457 35.4731C154.898 35.4731 153.455 33.8747 153.455 30.441C153.455 27.0073 154.937 25.3694 157.536 25.3694C159.977 25.3694 161.459 27.1652 161.459 30.3226C161.459 33.7168 159.898 35.4731 157.457 35.4731ZM161.459 23.1395C160.382 21.2647 158.623 20.061 155.866 20.061C150.47 20.061 147.031 24.1755 147.031 30.5199C147.031 36.7065 150.47 40.821 155.668 40.821C158.544 40.821 160.708 39.3804 161.944 37.1505L162.141 40.4263H167.863V12.3154H161.469V23.1395H161.459ZM134.748 25.172C137.267 25.172 138.75 26.81 138.75 30.441C138.75 34.072 137.267 35.7099 134.748 35.7099C132.188 35.7099 130.706 34.072 130.706 30.441C130.706 26.81 132.188 25.172 134.748 25.172ZM134.748 20.061C128.512 20.061 124.272 23.8893 124.272 30.441C124.272 36.9926 128.512 40.821 134.748 40.821C140.944 40.821 145.183 36.9926 145.183 30.441C145.183 23.8992 140.944 20.061 134.748 20.061ZM116.712 40.4263V30.7271C116.712 27.8164 118.867 26.2969 121.268 26.2969C122.345 26.2969 123.027 26.4548 123.551 26.6126L124.233 20.3866C123.749 20.1892 123.077 20.0708 122.434 20.0708C119.193 20.0708 117.197 21.9061 116.277 24.3827L116.08 20.4655H110.318V40.4263H116.712ZM91.4828 25.695V17.9889H96.5623C99.5566 17.9889 101.276 19.0644 101.276 21.8173C101.276 24.6096 99.5962 25.6851 96.5623 25.6851H91.4828V25.695ZM85 12.3154V40.4263H91.4729V31.3685H97.6296C104.063 31.3685 107.828 27.8953 107.828 21.8272C107.828 15.8379 104.112 12.3253 97.6296 12.3253H85V12.3154Z" fill="#FF5C0B"/>
<path d="M171.421 40.4267H177.815V20.4658H171.421V40.4267ZM174.623 12C172.468 12 171.065 13.3616 171.065 15.4337C171.065 17.5452 172.468 18.9463 174.623 18.9463C176.826 18.9463 178.259 17.5452 178.259 15.4337C178.259 13.3616 176.816 12 174.623 12Z" fill="#FF5C0B"/>
<path d="M221.974 60.1162C220.742 60.1162 219.915 60.5173 219.492 61.3193C219.256 61.7705 219.138 62.4652 219.138 63.4033V69H216.055V57.291H218.977V59.332C219.449 58.5514 219.861 58.0179 220.212 57.7314C220.785 57.2516 221.53 57.0117 222.446 57.0117C222.504 57.0117 222.55 57.0153 222.586 57.0225C222.629 57.0225 222.718 57.026 222.854 57.0332V60.1699C222.661 60.1484 222.489 60.1341 222.339 60.127C222.188 60.1198 222.067 60.1162 221.974 60.1162Z" fill="#FF5C0B"/>
<path d="M212.402 58.7734C213.391 60.0124 213.885 61.4769 213.885 63.167C213.885 64.8857 213.391 66.3574 212.402 67.582C211.414 68.7995 209.914 69.4082 207.901 69.4082C205.889 69.4082 204.389 68.7995 203.4 67.582C202.412 66.3574 201.918 64.8857 201.918 63.167C201.918 61.4769 202.412 60.0124 203.4 58.7734C204.389 57.5345 205.889 56.915 207.901 56.915C209.914 56.915 211.414 57.5345 212.402 58.7734ZM207.891 59.5039C206.995 59.5039 206.304 59.8226 205.817 60.46C205.338 61.0902 205.098 61.9925 205.098 63.167C205.098 64.3415 205.338 65.2474 205.817 65.8848C206.304 66.5221 206.995 66.8408 207.891 66.8408C208.786 66.8408 209.473 66.5221 209.953 65.8848C210.433 65.2474 210.673 64.3415 210.673 63.167C210.673 61.9925 210.433 61.0902 209.953 60.46C209.473 59.8226 208.786 59.5039 207.891 59.5039Z" fill="#FF5C0B"/>
<path d="M200.672 66.8193V69.1074L199.222 69.1611C197.775 69.2113 196.787 68.9606 196.257 68.4092C195.913 68.0583 195.741 67.5176 195.741 66.7871V59.5791H194.108V57.3984H195.741V54.1328H198.771V57.3984H200.672V59.5791H198.771V65.7666C198.771 66.2464 198.831 66.5472 198.953 66.6689C199.075 66.7835 199.447 66.8408 200.07 66.8408C200.163 66.8408 200.26 66.8408 200.36 66.8408C200.468 66.8337 200.572 66.8265 200.672 66.8193Z" fill="#FF5C0B"/>
<path d="M192.336 57.291V69H189.231V57.291H192.336ZM192.336 53.0693V55.8945H189.231V53.0693H192.336Z" fill="#FF5C0B"/>
<path d="M186.396 53.1875V69H183.42V67.3779C182.983 68.0726 182.485 68.5775 181.927 68.8926C181.368 69.2077 180.674 69.3652 179.843 69.3652C178.475 69.3652 177.322 68.8138 176.384 67.7109C175.453 66.6009 174.987 65.1794 174.987 63.4463C174.987 61.4482 175.446 59.8763 176.362 58.7305C177.286 57.5846 178.518 57.0117 180.058 57.0117C180.767 57.0117 181.397 57.1693 181.948 57.4844C182.5 57.7923 182.947 58.222 183.291 58.7734V53.1875H186.396ZM178.146 63.2207C178.146 64.3021 178.36 65.165 178.79 65.8096C179.213 66.4613 179.857 66.7871 180.724 66.7871C181.59 66.7871 182.249 66.4648 182.7 65.8203C183.151 65.1758 183.377 64.3415 183.377 63.3174C183.377 61.8851 183.015 60.861 182.292 60.2451C181.848 59.8727 181.332 59.6865 180.745 59.6865C179.85 59.6865 179.191 60.0267 178.769 60.707C178.353 61.3802 178.146 62.2181 178.146 63.2207Z" fill="#FF5C0B"/>
<path d="M172.334 62.082H164.643V66.1533H173.408V69H161.409V53.166H173.021V55.9697H164.643V59.332H172.334V62.082Z" fill="#FF5C0B"/>
<path d="M147.853 69.3115C146.886 69.3115 146.109 69.1182 145.521 68.7314C145.171 68.5023 144.791 68.1012 144.383 67.5283V69H141.386V53.1875H144.437V58.8164C144.823 58.2721 145.249 57.8568 145.715 57.5703C146.266 57.2122 146.968 57.0332 147.82 57.0332C149.36 57.0332 150.563 57.5882 151.43 58.6982C152.303 59.8083 152.74 61.2406 152.74 62.9951C152.74 64.8141 152.311 66.3216 151.451 67.5176C150.592 68.7135 149.392 69.3115 147.853 69.3115ZM149.528 63.3174C149.528 62.4867 149.421 61.7992 149.206 61.2549C148.798 60.2236 148.046 59.708 146.95 59.708C145.84 59.708 145.077 60.2129 144.662 61.2227C144.447 61.7598 144.34 62.4544 144.34 63.3066C144.34 64.3092 144.562 65.14 145.006 65.7988C145.45 66.4577 146.127 66.7871 147.036 66.7871C147.824 66.7871 148.436 66.4684 148.873 65.8311C149.31 65.1937 149.528 64.3558 149.528 63.3174Z" fill="#FF5C0B"/>
<path d="M129.688 58.5586C130.497 57.5273 131.886 57.0117 133.855 57.0117C135.137 57.0117 136.276 57.266 137.271 57.7744C138.267 58.2829 138.765 59.2425 138.765 60.6533V66.0244C138.765 66.3968 138.772 66.848 138.786 67.3779C138.808 67.779 138.868 68.0511 138.969 68.1943C139.069 68.3376 139.219 68.4557 139.42 68.5488V69H136.09C135.997 68.7637 135.932 68.5417 135.896 68.334C135.861 68.1263 135.832 67.89 135.811 67.625C135.388 68.0833 134.901 68.4736 134.35 68.7959C133.691 69.1755 132.946 69.3652 132.115 69.3652C131.055 69.3652 130.178 69.0645 129.483 68.4629C128.796 67.8542 128.452 66.9948 128.452 65.8848C128.452 64.4453 129.007 63.4033 130.117 62.7588C130.726 62.4079 131.621 62.1572 132.803 62.0068L133.845 61.8779C134.41 61.8063 134.815 61.7168 135.059 61.6094C135.495 61.4232 135.714 61.1331 135.714 60.7393C135.714 60.2594 135.546 59.93 135.209 59.751C134.88 59.5648 134.393 59.4717 133.748 59.4717C133.025 59.4717 132.513 59.6507 132.212 60.0088C131.997 60.2738 131.854 60.6318 131.782 61.083H128.828C128.893 60.0589 129.179 59.2174 129.688 58.5586ZM131.965 66.7871C132.251 67.0234 132.602 67.1416 133.018 67.1416C133.676 67.1416 134.282 66.9482 134.833 66.5615C135.392 66.1748 135.682 65.4694 135.703 64.4453V63.3066C135.51 63.4284 135.313 63.5286 135.112 63.6074C134.919 63.679 134.65 63.7471 134.307 63.8115L133.619 63.9404C132.975 64.055 132.513 64.1947 132.233 64.3594C131.761 64.6387 131.524 65.0719 131.524 65.6592C131.524 66.182 131.671 66.5579 131.965 66.7871Z" fill="#FF5C0B"/>
<path d="M127.41 53.0693V55.5615C127.238 55.54 126.948 55.5257 126.54 55.5186C126.139 55.5042 125.86 55.5938 125.702 55.7871C125.552 55.9733 125.477 56.181 125.477 56.4102V57.3984H127.485V59.5576H125.477V69H122.426V59.5576H120.718V57.3984H122.394V56.6465C122.394 55.3932 122.605 54.5303 123.027 54.0576C123.471 53.3558 124.542 53.0049 126.239 53.0049C126.433 53.0049 126.608 53.012 126.766 53.0264C126.923 53.0335 127.138 53.0479 127.41 53.0693Z" fill="#FF5C0B"/>
<path d="M119.697 65.5625C119.618 66.2572 119.257 66.9626 118.612 67.6787C117.61 68.8174 116.206 69.3867 114.401 69.3867C112.912 69.3867 111.598 68.9069 110.459 67.9473C109.32 66.9876 108.751 65.4264 108.751 63.2637C108.751 61.237 109.263 59.6829 110.287 58.6016C111.318 57.5202 112.654 56.9795 114.294 56.9795C115.268 56.9795 116.145 57.1621 116.926 57.5273C117.706 57.8926 118.351 58.4691 118.859 59.2568C119.318 59.9515 119.615 60.7572 119.751 61.6738C119.83 62.2109 119.862 62.9844 119.848 63.9941H111.834C111.877 65.1686 112.246 65.9922 112.94 66.4648C113.363 66.7585 113.871 66.9053 114.466 66.9053C115.096 66.9053 115.608 66.7262 116.002 66.3682C116.217 66.1748 116.407 65.9062 116.571 65.5625H119.697ZM116.668 61.9746C116.618 61.1654 116.371 60.5531 115.927 60.1377C115.49 59.7152 114.946 59.5039 114.294 59.5039C113.585 59.5039 113.034 59.7259 112.64 60.1699C112.253 60.6139 112.009 61.2155 111.909 61.9746H116.668Z" fill="#FF5C0B"/>
<path d="M106.989 60.1162C105.757 60.1162 104.93 60.5173 104.508 61.3193C104.271 61.7705 104.153 62.4652 104.153 63.4033V69H101.07V57.291H103.992V59.332C104.465 58.5514 104.877 58.0179 105.228 57.7314C105.8 57.2516 106.545 57.0117 107.462 57.0117C107.519 57.0117 107.566 57.0153 107.602 57.0225C107.645 57.0225 107.734 57.026 107.87 57.0332V60.1699C107.677 60.1484 107.505 60.1341 107.354 60.127C107.204 60.1198 107.082 60.1162 106.989 60.1162Z" fill="#FF5C0B"/>
<path d="M93.4004 63.3066H90.0381V69H86.751V53.166H93.6475C95.2373 53.166 96.5049 53.5742 97.4502 54.3906C98.3955 55.207 98.8682 56.471 98.8682 58.1826C98.8682 60.0518 98.3955 61.373 97.4502 62.1465C96.5049 62.9199 95.1549 63.3066 93.4004 63.3066ZM94.9473 60.0088C95.377 59.6292 95.5918 59.0277 95.5918 58.2041C95.5918 57.3805 95.3734 56.7933 94.9365 56.4424C94.5068 56.0915 93.9017 55.916 93.1211 55.916H90.0381V60.5781H93.1211C93.9017 60.5781 94.5104 60.3883 94.9473 60.0088Z" fill="#FF5C0B"/>
<path fill-rule="evenodd" clip-rule="evenodd" d="M219.492 61.3194C219.915 60.5173 220.742 60.1163 221.974 60.1163C222.067 60.1163 222.189 60.1198 222.339 60.127C222.435 60.1316 222.541 60.1391 222.655 60.1496C222.718 60.1555 222.785 60.1623 222.855 60.17V57.0333C222.718 57.0261 222.629 57.0225 222.586 57.0225C222.55 57.0153 222.504 57.0118 222.446 57.0118C221.53 57.0118 220.785 57.2517 220.212 57.7315C219.911 57.9768 219.566 58.4032 219.177 59.0109C219.111 59.1128 219.045 59.2199 218.977 59.3321V57.2911H216.055V69H219.138V63.4034C219.138 62.4652 219.256 61.7706 219.492 61.3194ZM219.669 61.4126C219.456 61.8201 219.338 62.4749 219.338 63.4034V69.2H215.855V57.0911H219.177V58.6474C219.505 58.1635 219.807 57.8038 220.084 57.5774C220.084 57.5776 220.084 57.5779 220.084 57.5782M219.669 61.4126C220.045 60.6995 220.786 60.3163 221.974 60.3163C222.062 60.3163 222.181 60.3197 222.329 60.3268C222.475 60.3337 222.642 60.3476 222.832 60.3687L223.055 60.3934V56.8435L222.865 56.8335C222.745 56.8272 222.657 56.8234 222.605 56.8227C222.556 56.8147 222.502 56.8118 222.446 56.8118C221.494 56.8118 220.701 57.0616 220.084 57.5774" fill="#FF5C0B"/>
<path fill-rule="evenodd" clip-rule="evenodd" d="M213.885 63.167C213.885 61.4769 213.391 60.0124 212.402 58.7735C211.414 57.5346 209.914 56.9151 207.901 56.9151C205.889 56.9151 204.389 57.5346 203.4 58.7735C202.412 60.0124 201.918 61.4769 201.918 63.167C201.918 64.8858 202.412 66.3575 203.4 67.5821C204.389 68.7995 205.889 69.4083 207.901 69.4083C209.914 69.4083 211.414 68.7995 212.402 67.5821C213.391 66.3575 213.885 64.8858 213.885 63.167ZM205.817 60.46C206.304 59.8226 206.995 59.504 207.891 59.504C208.786 59.504 209.473 59.8226 209.953 60.46C210.433 61.0902 210.673 61.9926 210.673 63.167C210.673 64.3415 210.433 65.2474 209.953 65.8848C209.473 66.5222 208.786 66.8409 207.891 66.8409C206.995 66.8409 206.304 66.5222 205.817 65.8848C205.338 65.2474 205.098 64.3415 205.098 63.167C205.098 61.9926 205.338 61.0902 205.817 60.46ZM205.977 60.5812C205.533 61.1633 205.298 62.0161 205.298 63.167C205.298 64.3174 205.533 65.1742 205.977 65.764C206.421 66.3452 207.05 66.6409 207.891 66.6409C208.732 66.6409 209.356 66.3451 209.793 65.7645C210.237 65.1748 210.473 64.3178 210.473 63.167C210.473 62.0161 210.237 61.1633 209.794 60.5812L209.793 60.5803C209.356 59.9998 208.732 59.704 207.891 59.704C207.05 59.704 206.421 59.9997 205.977 60.5812ZM212.558 67.7077L212.558 67.7081C211.521 68.985 209.956 69.6083 207.901 69.6083C205.847 69.6083 204.282 68.985 203.245 67.7081L203.245 67.7077C202.225 66.4442 201.718 64.927 201.718 63.167C201.718 61.4348 202.226 59.9256 203.244 58.6488C204.28 57.3498 205.846 56.7151 207.901 56.7151C209.957 56.7151 211.523 57.3498 212.559 58.6488C213.577 59.9256 214.085 61.4348 214.085 63.167C214.085 64.927 213.578 66.4442 212.558 67.7077Z" fill="#FF5C0B"/>
<path fill-rule="evenodd" clip-rule="evenodd" d="M200.672 66.8194C200.607 66.824 200.54 66.8287 200.472 66.8333C200.435 66.8359 200.398 66.8384 200.36 66.8409H200.07C199.447 66.8409 199.075 66.7836 198.953 66.669C198.831 66.5472 198.771 66.2465 198.771 65.7667V59.5792H200.672V57.3985H198.771V54.1329H195.741V57.3985H194.108V59.5792H195.741V66.7872C195.741 67.5176 195.913 68.0583 196.257 68.4092C196.787 68.9607 197.775 69.2113 199.222 69.1612L200.672 69.1075V66.8194ZM196.113 68.5482C195.719 68.1451 195.541 67.5442 195.541 66.7872V59.7792H193.908V57.1985H195.541V53.9329H198.971V57.1985H200.872V59.7792H198.971V65.7667C198.971 65.9998 198.985 66.1802 199.012 66.3124C199.039 66.444 199.072 66.5031 199.092 66.5246C199.092 66.525 199.093 66.5255 199.094 66.5261C199.095 66.5271 199.097 66.5282 199.099 66.5295C199.101 66.5307 199.103 66.5321 199.106 66.5336C199.118 66.5398 199.134 66.5473 199.157 66.5553C199.204 66.5715 199.268 66.587 199.354 66.6002C199.526 66.6267 199.763 66.6409 200.07 66.6409H200.353C200.458 66.6339 200.56 66.6269 200.658 66.6199L200.872 66.6046V69.3002L199.229 69.361C197.772 69.4115 196.706 69.1647 196.113 68.5482Z" fill="#FF5C0B"/>
<path fill-rule="evenodd" clip-rule="evenodd" d="M192.536 57.0911V69.2001H189.031V57.0911H192.536ZM192.536 52.8694V56.0946H189.031V52.8694H192.536ZM192.336 57.2911H189.231V69H192.336V57.2911ZM192.336 53.0694H189.231V55.8946H192.336V53.0694Z" fill="#FF5C0B"/>
<path fill-rule="evenodd" clip-rule="evenodd" d="M186.596 52.9875V69.2001H183.22V68.0102C182.861 68.4656 182.463 68.8196 182.025 69.0668C181.429 69.4031 180.698 69.5653 179.843 69.5653C178.413 69.5653 177.205 68.9851 176.231 67.8406L176.231 67.8395C175.264 66.6867 174.787 65.2168 174.787 63.4463C174.787 61.4192 175.252 59.7978 176.206 58.6056C177.17 57.4102 178.461 56.8118 180.058 56.8118C180.797 56.8118 181.462 56.9763 182.047 57.3104C182.447 57.534 182.795 57.8185 183.091 58.163V52.9875H186.596ZM183.291 58.7735C183.228 58.6722 183.161 58.575 183.091 58.4819C182.779 58.0683 182.398 57.7358 181.948 57.4844C181.397 57.1693 180.767 57.0118 180.058 57.0118C178.518 57.0118 177.286 57.5847 176.362 58.7305C175.446 59.8764 174.987 61.4483 174.987 63.4463C174.987 65.1794 175.453 66.601 176.384 67.711C177.322 68.8139 178.475 69.3653 179.843 69.3653C180.674 69.3653 181.368 69.2077 181.927 68.8926C182.402 68.6246 182.833 68.2194 183.22 67.6768C183.288 67.5814 183.355 67.4818 183.42 67.378V69H186.396V53.1875H183.291V58.7735ZM178.956 65.6987L178.958 65.7008C179.339 66.2883 179.916 66.5872 180.724 66.5872C181.533 66.5872 182.127 66.2907 182.536 65.7057C182.958 65.1036 183.177 64.3128 183.177 63.3174C183.177 61.9141 182.823 60.96 182.163 60.398C181.756 60.0565 181.286 59.8866 180.745 59.8866C179.909 59.8866 179.32 60.1988 178.938 60.8126C178.547 61.4467 178.346 62.2457 178.346 63.2208C178.346 64.2777 178.556 65.0976 178.956 65.6987ZM178.769 60.7071C179.191 60.0267 179.85 59.6866 180.745 59.6866C181.332 59.6866 181.848 59.8728 182.292 60.2452C183.015 60.8611 183.377 61.8851 183.377 63.3174C183.377 64.3415 183.151 65.1758 182.7 65.8204C182.249 66.4649 181.59 66.7872 180.724 66.7872C179.857 66.7872 179.213 66.4613 178.79 65.8096C178.36 65.1651 178.146 64.3021 178.146 63.2208C178.146 62.2181 178.353 61.3803 178.769 60.7071Z" fill="#FF5C0B"/>
<path fill-rule="evenodd" clip-rule="evenodd" d="M172.534 62.2821H164.843V65.9534H173.608V69.2001H161.209V52.9661H173.222V56.1698H164.843V59.1321H172.534V62.2821ZM164.643 59.3321V55.9698H173.022V53.1661H161.409V69H173.408V66.1534H164.643V62.0821H172.334V59.3321H164.643Z" fill="#FF5C0B"/>
<path fill-rule="evenodd" clip-rule="evenodd" d="M144.583 69.2001H141.186V52.9875H144.637V58.239C144.937 57.8955 145.261 57.6154 145.608 57.4013C146.2 57.0177 146.942 56.8333 147.82 56.8333C149.415 56.8333 150.679 57.4117 151.587 58.5752C152.495 59.7283 152.94 61.2072 152.94 62.9952C152.94 64.8461 152.503 66.3971 151.614 67.6343C150.715 68.8853 149.453 69.5116 147.853 69.5116C146.861 69.5116 146.042 69.3135 145.412 68.8987C145.143 68.7234 144.867 68.4612 144.583 68.1184V69.2001ZM144.583 67.7983C144.517 67.713 144.45 67.623 144.383 67.5284V69H141.386V53.1875H144.437V58.8165C144.502 58.7242 144.569 58.6357 144.637 58.5509C144.969 58.1351 145.328 57.8083 145.715 57.5704C146.266 57.2123 146.968 57.0333 147.82 57.0333C149.36 57.0333 150.563 57.5883 151.43 58.6983C152.303 59.8083 152.74 61.2406 152.74 62.9952C152.74 64.8142 152.311 66.3217 151.451 67.5176C150.592 68.7136 149.392 69.3116 147.853 69.3116C146.886 69.3116 146.109 69.1182 145.522 68.7315C145.229 68.5402 144.916 68.2291 144.583 67.7983ZM149.206 61.2549C148.798 60.2237 148.046 59.7081 146.95 59.7081C145.84 59.7081 145.078 60.2129 144.662 61.2227C144.447 61.7598 144.34 62.4545 144.34 63.3067C144.34 64.3093 144.562 65.14 145.006 65.7989C145.45 66.4577 146.127 66.7872 147.036 66.7872C147.824 66.7872 148.436 66.4685 148.873 65.8311C149.31 65.1937 149.528 64.3558 149.528 63.3174C149.528 62.4867 149.421 61.7992 149.206 61.2549ZM144.847 61.2979C145.043 60.8232 145.314 60.4797 145.656 60.2535C145.998 60.027 146.426 59.9081 146.95 59.9081C147.466 59.9081 147.886 60.029 148.223 60.2597C148.56 60.4905 148.827 60.8418 149.02 61.3285C149.223 61.8418 149.328 62.5022 149.328 63.3174C149.328 64.3291 149.116 65.1236 148.708 65.718C148.309 66.2997 147.76 66.5872 147.036 66.5872C146.182 66.5872 145.573 66.2821 145.172 65.6871C144.755 65.069 144.54 64.2799 144.54 63.3067C144.54 62.4695 144.646 61.8029 144.847 61.2979Z" fill="#FF5C0B"/>
<path fill-rule="evenodd" clip-rule="evenodd" d="M133.856 57.0118C131.886 57.0118 130.497 57.5274 129.688 58.5586C129.213 59.1741 128.931 59.9489 128.844 60.8831C128.838 60.9489 128.832 61.0156 128.828 61.0831H131.782C131.854 60.6319 131.997 60.2738 132.212 60.0088C132.513 59.6508 133.025 59.4717 133.748 59.4717C134.393 59.4717 134.88 59.5648 135.209 59.751C135.546 59.9301 135.714 60.2595 135.714 60.7393C135.714 61.1332 135.495 61.4232 135.059 61.6094C134.815 61.7168 134.411 61.8064 133.845 61.878L132.803 62.0069C131.621 62.1573 130.726 62.4079 130.117 62.7588C129.007 63.4034 128.452 64.4454 128.452 65.8848C128.452 66.9948 128.796 67.8542 129.483 68.4629C130.178 69.0645 131.055 69.3653 132.115 69.3653C132.946 69.3653 133.691 69.1755 134.35 68.7959C134.823 68.5194 135.249 68.1928 135.627 67.816C135.689 67.7537 135.751 67.6901 135.811 67.625C135.818 67.7166 135.826 67.8048 135.835 67.8895C135.853 68.05 135.873 68.1981 135.897 68.334C135.932 68.5417 135.997 68.7637 136.09 69H139.42V68.5489C139.219 68.4558 139.069 68.3376 138.969 68.1944C138.869 68.0512 138.808 67.779 138.786 67.378C138.772 66.848 138.765 66.3969 138.765 66.0245V60.6534C138.765 59.2426 138.267 58.2829 137.272 57.7745C136.276 57.266 135.137 57.0118 133.856 57.0118ZM138.986 67.3699C138.972 66.8422 138.965 66.3939 138.965 66.0245V60.6534C138.965 59.1908 138.443 58.1485 137.363 57.5964C136.335 57.0715 135.164 56.8118 133.856 56.8118C131.856 56.8118 130.393 57.3352 129.53 58.4352L129.529 58.4365C128.991 59.1336 128.695 60.0159 128.629 61.0705L128.615 61.2831H131.953L131.98 61.1144C132.048 60.6874 132.18 60.3661 132.366 60.1362C132.612 59.8442 133.052 59.6717 133.748 59.6717C134.379 59.6717 134.825 59.764 135.111 59.9251L135.115 59.9276C135.369 60.0625 135.514 60.3109 135.514 60.7393C135.514 60.8967 135.471 61.0246 135.39 61.1319C135.308 61.2416 135.176 61.342 134.98 61.4254L134.978 61.4264C134.763 61.5213 134.383 61.6082 133.82 61.6795C133.82 61.6795 133.82 61.6795 133.82 61.6795L132.778 61.8084C131.586 61.9601 130.66 62.2153 130.017 62.5856C128.837 63.2708 128.252 64.3845 128.252 65.8848C128.252 67.0391 128.612 67.9581 129.351 68.6127L129.353 68.6141C130.089 69.2519 131.015 69.5653 132.115 69.5653C132.978 69.5653 133.758 69.3679 134.449 68.9693L134.451 68.9686C134.892 68.7109 135.293 68.4105 135.655 68.0676C135.668 68.1731 135.683 68.2732 135.699 68.368C135.738 68.5916 135.807 68.8268 135.904 69.0734L135.954 69.2H139.62V68.4212L139.504 68.3675C139.327 68.2853 139.208 68.1874 139.133 68.0797C139.104 68.0384 139.071 67.9632 139.043 67.8392C139.016 67.7181 138.996 67.5625 138.986 67.3699ZM133.018 67.1417C132.602 67.1417 132.251 67.0235 131.965 66.7872C131.671 66.558 131.524 66.182 131.524 65.6592C131.524 65.072 131.761 64.6387 132.233 64.3594C132.513 64.1947 132.975 64.0551 133.619 63.9405L134.307 63.8116C134.65 63.7471 134.919 63.6791 135.112 63.6075C135.244 63.5557 135.374 63.4946 135.503 63.4243C135.57 63.3876 135.637 63.3484 135.703 63.3067V64.4454C135.682 65.4694 135.392 66.1749 134.833 66.5616C134.282 66.9483 133.676 67.1417 133.018 67.1417ZM135.503 64.4433C135.482 65.4359 135.202 66.0629 134.719 66.3971L134.718 66.3978C134.2 66.7615 133.634 66.9416 133.018 66.9416C132.643 66.9416 132.339 66.8361 132.092 66.6329L132.088 66.6295C131.86 66.4519 131.724 66.1467 131.724 65.6592C131.724 65.1368 131.928 64.7721 132.335 64.5317C132.582 64.3861 133.014 64.2512 133.654 64.1374L134.344 64.0081C134.692 63.9428 134.973 63.8723 135.182 63.795L135.185 63.7936C135.293 63.7515 135.398 63.7038 135.503 63.6504V64.4433Z" fill="#FF5C0B"/>
<path fill-rule="evenodd" clip-rule="evenodd" d="M127.61 52.8846V55.7881L127.385 55.76C127.225 55.74 126.945 55.7257 126.537 55.7186L126.533 55.7185C126.157 55.7051 125.956 55.792 125.858 55.9131C125.735 56.0654 125.677 56.229 125.677 56.4102V57.1985H127.685V59.7577H125.677V69.2001H122.226V59.7577H120.518V57.1985H122.194V56.6465C122.194 55.3951 122.4 54.4702 122.867 53.9368C123.123 53.5419 123.544 53.2607 124.101 53.0781C124.664 52.8936 125.379 52.8049 126.239 52.8049C126.436 52.8049 126.616 52.8121 126.779 52.8268C126.94 52.8342 127.155 52.8487 127.426 52.87L127.61 52.8846ZM123.027 54.0577C122.605 54.5303 122.394 55.3933 122.394 56.6465V57.3985H120.718V59.5577H122.426V69H125.477V59.5577H127.485V57.3985H125.477V56.4102C125.477 56.181 125.552 55.9734 125.702 55.7872C125.86 55.5938 126.139 55.5043 126.54 55.5186C126.818 55.5235 127.042 55.5317 127.21 55.5432C127.289 55.5486 127.356 55.5547 127.41 55.5616V53.0694C127.138 53.0479 126.923 53.0336 126.766 53.0264C126.608 53.0121 126.433 53.0049 126.239 53.0049C124.542 53.0049 123.471 53.3558 123.027 54.0577Z" fill="#FF5C0B"/>
<path fill-rule="evenodd" clip-rule="evenodd" d="M119.667 65.7625C119.68 65.6958 119.69 65.6291 119.697 65.5625H116.571C116.407 65.9063 116.217 66.1749 116.002 66.3682C115.608 66.7263 115.096 66.9053 114.466 66.9053C113.871 66.9053 113.363 66.7585 112.94 66.4649C112.286 66.0195 111.921 65.2626 111.845 64.1942C111.84 64.1287 111.837 64.062 111.834 63.9942H119.848C119.862 62.9844 119.83 62.211 119.751 61.6739C119.615 60.7572 119.318 59.9515 118.859 59.2569C118.351 58.4691 117.706 57.8926 116.926 57.5274C116.145 57.1622 115.268 56.9795 114.294 56.9795C112.654 56.9795 111.318 57.5202 110.287 58.6016C109.263 59.683 108.751 61.237 108.751 63.2637C108.751 65.4265 109.32 66.9877 110.459 67.9473C111.598 68.9069 112.912 69.3868 114.401 69.3868C116.206 69.3868 117.61 68.8174 118.612 67.6788C119.195 67.0312 119.547 66.3925 119.667 65.7625ZM118.762 67.8118C119.423 67.0764 119.811 66.3339 119.896 65.5851L119.921 65.3625H116.445L116.391 65.4761C116.234 65.8034 116.058 66.0483 115.868 66.2196L115.867 66.2202C115.517 66.5388 115.056 66.7053 114.466 66.7053C113.906 66.7053 113.439 66.5675 113.055 66.3006L113.053 66.2995C112.469 65.9019 112.121 65.2168 112.045 64.1942H120.045L120.048 63.997C120.062 62.984 120.03 62.1979 119.949 61.6449C119.809 60.703 119.503 59.869 119.027 59.1475C118.5 58.3315 117.828 57.7287 117.011 57.3462C116.2 56.9671 115.293 56.7795 114.294 56.7795C112.605 56.7795 111.215 57.3385 110.142 58.4636C109.072 59.5938 108.551 61.2046 108.551 63.2637C108.551 65.458 109.129 67.0879 110.33 68.1002C111.505 69.0903 112.865 69.5868 114.401 69.5868C116.251 69.5868 117.714 69.0012 118.762 67.8118ZM116.651 61.7747C116.658 61.8399 116.664 61.9066 116.668 61.9747H111.909C111.918 61.9067 111.928 61.8401 111.94 61.7747C112.054 61.1091 112.288 60.5742 112.64 60.17C113.034 59.726 113.585 59.504 114.294 59.504C114.946 59.504 115.49 59.7152 115.927 60.1377C116.333 60.5182 116.575 61.0638 116.651 61.7747ZM116.45 61.7747C116.375 61.1085 116.149 60.6193 115.79 60.2838L115.788 60.2815C115.391 59.8978 114.898 59.704 114.294 59.704C113.63 59.704 113.138 59.9096 112.79 60.302C112.473 60.6656 112.254 61.1527 112.143 61.7747H116.45Z" fill="#FF5C0B"/>
<path fill-rule="evenodd" clip-rule="evenodd" d="M104.508 61.3194C104.93 60.5173 105.758 60.1163 106.989 60.1163C107.082 60.1163 107.204 60.1198 107.355 60.127C107.451 60.1316 107.556 60.1391 107.67 60.1496C107.734 60.1555 107.801 60.1623 107.87 60.17V57.0333C107.734 57.0261 107.645 57.0225 107.602 57.0225C107.566 57.0153 107.519 57.0118 107.462 57.0118C106.545 57.0118 105.801 57.2517 105.228 57.7315C104.927 57.9768 104.582 58.4032 104.192 59.0109C104.127 59.1128 104.06 59.2199 103.992 59.3321V57.2911H101.07V69H104.153V63.4034C104.153 62.4652 104.272 61.7706 104.508 61.3194ZM104.685 61.4122C104.472 61.8197 104.353 62.4747 104.353 63.4034V69.2H100.87V57.0911H104.192V58.6474C104.521 58.1635 104.823 57.8039 105.1 57.5774C105.716 57.0616 106.51 56.8118 107.462 56.8118C107.518 56.8118 107.572 56.8147 107.62 56.8227C107.673 56.8234 107.761 56.8272 107.881 56.8335L108.07 56.8435V60.3934L107.848 60.3687C107.658 60.3476 107.49 60.3337 107.345 60.3268C107.196 60.3197 107.078 60.3163 106.989 60.3163C105.801 60.3163 105.061 60.6993 104.685 61.4122Z" fill="#FF5C0B"/>
<path fill-rule="evenodd" clip-rule="evenodd" d="M90.2381 69.2001H86.551V52.9661H93.6475C95.2719 52.9661 96.5903 53.3837 97.581 54.2393C98.5849 55.1063 99.0682 56.4355 99.0682 58.1827C99.0682 60.0796 98.5888 61.4734 97.5769 62.3013C96.5831 63.1144 95.1815 63.5067 93.4004 63.5067H90.2381V69.2001ZM90.0381 63.3067H93.4004C95.155 63.3067 96.5049 62.92 97.4502 62.1465C98.3956 61.3731 98.8682 60.0518 98.8682 58.1827C98.8682 56.4711 98.3956 55.2071 97.4502 54.3907C96.5049 53.5743 95.2374 53.1661 93.6475 53.1661H86.751V69H90.0381V63.3067ZM94.8113 56.5984L94.8101 56.5973C94.4282 56.2855 93.8741 56.1161 93.1211 56.1161H90.2381V60.3782H93.1211C93.8701 60.3782 94.4261 60.1964 94.8155 59.8584C95.1858 59.531 95.3918 58.9956 95.3918 58.2042C95.3918 57.4118 95.182 56.8961 94.8113 56.5984ZM94.9473 60.0088C94.5105 60.3884 93.9017 60.5782 93.1211 60.5782H90.0381V55.9161H93.1211C93.9017 55.9161 94.5069 56.0915 94.9366 56.4424C95.3734 56.7933 95.5918 57.3806 95.5918 58.2042C95.5918 59.0277 95.377 59.6293 94.9473 60.0088Z" fill="#FF5C0B"/>
</svg>
